<mxfile host="app.diagrams.net" agent="Mozilla/5.0 (Windows NT 10.0; Win64; x64) AppleWebKit/537.36 (KHTML, like Gecko) Chrome/128.0.0.0 Safari/537.36" version="24.7.10">
  <diagram name="Page-1" id="KmnDbmbGH0E8aHo9xFth">
    <mxGraphModel dx="1050" dy="522" grid="1" gridSize="10" guides="1" tooltips="1" connect="1" arrows="1" fold="1" page="1" pageScale="1" pageWidth="1100" pageHeight="1700" math="0" shadow="0">
      <root>
        <mxCell id="0" />
        <mxCell id="1" parent="0" />
        <mxCell id="DKJsUQ_CmdOitTm1LJQ3-1" value="" style="rounded=0;whiteSpace=wrap;html=1;strokeWidth=2;fontSize=12;fontStyle=1;fontFamily=Times New Roman;" parent="1" vertex="1">
          <mxGeometry x="140" y="70" width="780" height="1290" as="geometry" />
        </mxCell>
        <mxCell id="DKJsUQ_CmdOitTm1LJQ3-2" value="Logo" style="rounded=1;whiteSpace=wrap;html=1;strokeWidth=2;fontSize=12;fontStyle=1;fontFamily=Times New Roman;" parent="1" vertex="1">
          <mxGeometry x="200" y="110" width="70" height="30" as="geometry" />
        </mxCell>
        <mxCell id="DKJsUQ_CmdOitTm1LJQ3-3" value="HOME" style="rounded=1;whiteSpace=wrap;html=1;strokeWidth=2;fontSize=12;fontStyle=1;fontFamily=Times New Roman;" parent="1" vertex="1">
          <mxGeometry x="340" y="110" width="50" height="30" as="geometry" />
        </mxCell>
        <mxCell id="DKJsUQ_CmdOitTm1LJQ3-4" value="ABOUT" style="rounded=1;whiteSpace=wrap;html=1;strokeWidth=2;fontSize=12;fontStyle=1;fontFamily=Times New Roman;" parent="1" vertex="1">
          <mxGeometry x="400" y="110" width="50" height="30" as="geometry" />
        </mxCell>
        <mxCell id="DKJsUQ_CmdOitTm1LJQ3-6" value="Search Bar" style="rounded=1;whiteSpace=wrap;html=1;strokeWidth=2;fontSize=12;fontStyle=1;fontFamily=Times New Roman;" parent="1" vertex="1">
          <mxGeometry x="740" y="110" width="70" height="30" as="geometry" />
        </mxCell>
        <mxCell id="DKJsUQ_CmdOitTm1LJQ3-7" value="Cart" style="rounded=1;whiteSpace=wrap;html=1;strokeWidth=2;fontSize=12;fontStyle=1;fontFamily=Times New Roman;" parent="1" vertex="1">
          <mxGeometry x="820" y="110" width="70" height="30" as="geometry" />
        </mxCell>
        <mxCell id="DKJsUQ_CmdOitTm1LJQ3-9" value="Login" style="rounded=1;whiteSpace=wrap;html=1;strokeWidth=2;fontSize=12;fontStyle=1;fontFamily=Times New Roman;" parent="1" vertex="1">
          <mxGeometry x="593" y="110" width="70" height="30" as="geometry" />
        </mxCell>
        <mxCell id="DKJsUQ_CmdOitTm1LJQ3-10" value="CONTACT" style="rounded=1;whiteSpace=wrap;html=1;strokeWidth=2;fontSize=12;fontStyle=1;fontFamily=Times New Roman;" parent="1" vertex="1">
          <mxGeometry x="460" y="110" width="72" height="30" as="geometry" />
        </mxCell>
        <mxCell id="DKJsUQ_CmdOitTm1LJQ3-11" value="" style="endArrow=none;html=1;rounded=0;entryX=0.002;entryY=0.128;entryDx=0;entryDy=0;entryPerimeter=0;exitX=1.002;exitY=0.127;exitDx=0;exitDy=0;exitPerimeter=0;fontSize=12;fontStyle=1;strokeWidth=2;fontFamily=Times New Roman;" parent="1" edge="1">
          <mxGeometry width="50" height="50" relative="1" as="geometry">
            <mxPoint x="921.56" y="170.22000000000003" as="sourcePoint" />
            <mxPoint x="141.55999999999995" y="171.07999999999993" as="targetPoint" />
            <Array as="points" />
          </mxGeometry>
        </mxCell>
        <mxCell id="DKJsUQ_CmdOitTm1LJQ3-12" value="" style="endArrow=none;html=1;rounded=0;entryX=0.002;entryY=0.128;entryDx=0;entryDy=0;entryPerimeter=0;exitX=1.002;exitY=0.127;exitDx=0;exitDy=0;exitPerimeter=0;fontSize=12;fontStyle=1;strokeWidth=2;fontFamily=Times New Roman;" parent="1" edge="1">
          <mxGeometry width="50" height="50" relative="1" as="geometry">
            <mxPoint x="920" y="450" as="sourcePoint" />
            <mxPoint x="139.99999999999994" y="450.8599999999999" as="targetPoint" />
            <Array as="points" />
          </mxGeometry>
        </mxCell>
        <mxCell id="DKJsUQ_CmdOitTm1LJQ3-13" value="Banner" style="text;html=1;align=center;verticalAlign=middle;whiteSpace=wrap;rounded=0;strokeWidth=2;fontStyle=1;fontFamily=Times New Roman;fontSize=16;" parent="1" vertex="1">
          <mxGeometry x="490" y="280" width="60" height="30" as="geometry" />
        </mxCell>
        <mxCell id="DKJsUQ_CmdOitTm1LJQ3-16" value="" style="rounded=0;whiteSpace=wrap;html=1;strokeWidth=2;fontStyle=1;fontFamily=Times New Roman;" parent="1" vertex="1">
          <mxGeometry x="252" y="960" width="570" height="170" as="geometry" />
        </mxCell>
        <mxCell id="DKJsUQ_CmdOitTm1LJQ3-17" value="" style="rounded=0;whiteSpace=wrap;html=1;strokeWidth=2;fontStyle=1;fontFamily=Times New Roman;" parent="1" vertex="1">
          <mxGeometry x="252" y="765" width="570" height="170" as="geometry" />
        </mxCell>
        <mxCell id="DKJsUQ_CmdOitTm1LJQ3-20" value="Products" style="text;html=1;align=center;verticalAlign=middle;whiteSpace=wrap;rounded=0;strokeWidth=2;fontStyle=1;fontSize=14;fontFamily=Times New Roman;" parent="1" vertex="1">
          <mxGeometry x="262" y="970" width="60" height="30" as="geometry" />
        </mxCell>
        <mxCell id="DKJsUQ_CmdOitTm1LJQ3-21" value="Products" style="text;html=1;align=center;verticalAlign=middle;whiteSpace=wrap;rounded=0;strokeWidth=2;fontStyle=1;fontSize=14;fontFamily=Times New Roman;" parent="1" vertex="1">
          <mxGeometry x="260" y="775" width="60" height="30" as="geometry" />
        </mxCell>
        <mxCell id="DKJsUQ_CmdOitTm1LJQ3-22" value="" style="rounded=1;whiteSpace=wrap;html=1;strokeWidth=2;fontStyle=1;fontFamily=Times New Roman;" parent="1" vertex="1">
          <mxGeometry x="296" y="1000" width="90" height="110" as="geometry" />
        </mxCell>
        <mxCell id="DKJsUQ_CmdOitTm1LJQ3-23" value="" style="rounded=1;whiteSpace=wrap;html=1;strokeWidth=2;fontStyle=1;fontFamily=Times New Roman;" parent="1" vertex="1">
          <mxGeometry x="426" y="1000" width="90" height="110" as="geometry" />
        </mxCell>
        <mxCell id="DKJsUQ_CmdOitTm1LJQ3-24" value="" style="rounded=1;whiteSpace=wrap;html=1;strokeWidth=2;fontStyle=1;fontFamily=Times New Roman;" parent="1" vertex="1">
          <mxGeometry x="556" y="1000" width="90" height="110" as="geometry" />
        </mxCell>
        <mxCell id="DKJsUQ_CmdOitTm1LJQ3-25" value="" style="rounded=1;whiteSpace=wrap;html=1;strokeWidth=2;fontStyle=1;fontFamily=Times New Roman;" parent="1" vertex="1">
          <mxGeometry x="686" y="1000" width="90" height="110" as="geometry" />
        </mxCell>
        <mxCell id="DKJsUQ_CmdOitTm1LJQ3-26" value="" style="rounded=1;whiteSpace=wrap;html=1;strokeWidth=2;fontStyle=1;fontFamily=Times New Roman;" parent="1" vertex="1">
          <mxGeometry x="290" y="805" width="90" height="110" as="geometry" />
        </mxCell>
        <mxCell id="DKJsUQ_CmdOitTm1LJQ3-27" value="" style="rounded=1;whiteSpace=wrap;html=1;strokeWidth=2;fontStyle=1;fontFamily=Times New Roman;" parent="1" vertex="1">
          <mxGeometry x="420" y="805" width="90" height="110" as="geometry" />
        </mxCell>
        <mxCell id="DKJsUQ_CmdOitTm1LJQ3-28" value="" style="rounded=1;whiteSpace=wrap;html=1;strokeWidth=2;fontStyle=1;fontFamily=Times New Roman;" parent="1" vertex="1">
          <mxGeometry x="550" y="805" width="90" height="110" as="geometry" />
        </mxCell>
        <mxCell id="DKJsUQ_CmdOitTm1LJQ3-29" value="" style="rounded=1;whiteSpace=wrap;html=1;strokeWidth=2;fontStyle=1;fontFamily=Times New Roman;" parent="1" vertex="1">
          <mxGeometry x="680" y="805" width="90" height="110" as="geometry" />
        </mxCell>
        <mxCell id="DKJsUQ_CmdOitTm1LJQ3-34" value="" style="endArrow=none;html=1;rounded=0;entryX=0.002;entryY=0.128;entryDx=0;entryDy=0;entryPerimeter=0;exitX=1.002;exitY=0.127;exitDx=0;exitDy=0;exitPerimeter=0;fontSize=12;fontStyle=1;strokeWidth=2;fontFamily=Times New Roman;" parent="1" edge="1">
          <mxGeometry width="50" height="50" relative="1" as="geometry">
            <mxPoint x="920" y="1150" as="sourcePoint" />
            <mxPoint x="139.99999999999994" y="1150.86" as="targetPoint" />
            <Array as="points" />
          </mxGeometry>
        </mxCell>
        <mxCell id="DKJsUQ_CmdOitTm1LJQ3-35" value="Logo" style="rounded=1;whiteSpace=wrap;html=1;strokeWidth=2;fontStyle=1;fontFamily=Times New Roman;" parent="1" vertex="1">
          <mxGeometry x="260" y="1200" width="120" height="30" as="geometry" />
        </mxCell>
        <mxCell id="DKJsUQ_CmdOitTm1LJQ3-37" value="Contact" style="rounded=0;whiteSpace=wrap;html=1;strokeWidth=2;fontStyle=1;fontFamily=Times New Roman;" parent="1" vertex="1">
          <mxGeometry x="620" y="1190" width="110" height="120" as="geometry" />
        </mxCell>
        <mxCell id="DKJsUQ_CmdOitTm1LJQ3-38" value="Menu" style="rounded=0;whiteSpace=wrap;html=1;strokeWidth=2;fontStyle=1;fontFamily=Times New Roman;" parent="1" vertex="1">
          <mxGeometry x="774" y="1190" width="110" height="120" as="geometry" />
        </mxCell>
        <mxCell id="4yUVgoZxhpLQ6DA9WBPM-1" value="SHOP" style="rounded=1;whiteSpace=wrap;html=1;strokeWidth=2;fontSize=12;fontStyle=1;fontFamily=Times New Roman;" vertex="1" parent="1">
          <mxGeometry x="540" y="110" width="44" height="30" as="geometry" />
        </mxCell>
        <mxCell id="4yUVgoZxhpLQ6DA9WBPM-10" value="" style="endArrow=none;html=1;rounded=0;entryX=0.002;entryY=0.128;entryDx=0;entryDy=0;entryPerimeter=0;exitX=1.002;exitY=0.127;exitDx=0;exitDy=0;exitPerimeter=0;fontSize=12;fontStyle=1;strokeWidth=2;fontFamily=Times New Roman;" edge="1" parent="1">
          <mxGeometry width="50" height="50" relative="1" as="geometry">
            <mxPoint x="920" y="720" as="sourcePoint" />
            <mxPoint x="139.99999999999994" y="720.8599999999999" as="targetPoint" />
            <Array as="points" />
          </mxGeometry>
        </mxCell>
        <mxCell id="4yUVgoZxhpLQ6DA9WBPM-12" value="Login" style="rounded=0;whiteSpace=wrap;html=1;strokeWidth=2;fontFamily=Times New Roman;fontStyle=1;fontSize=14;" vertex="1" parent="1">
          <mxGeometry x="234" y="560" width="120" height="60" as="geometry" />
        </mxCell>
        <mxCell id="4yUVgoZxhpLQ6DA9WBPM-13" value="No Return" style="rounded=0;whiteSpace=wrap;html=1;strokeWidth=2;fontFamily=Times New Roman;fontStyle=1;fontSize=14;" vertex="1" parent="1">
          <mxGeometry x="484" y="560" width="120" height="60" as="geometry" />
        </mxCell>
        <mxCell id="4yUVgoZxhpLQ6DA9WBPM-14" value="Free Delivery" style="rounded=0;whiteSpace=wrap;html=1;strokeWidth=2;fontFamily=Times New Roman;fontStyle=1;fontSize=14;" vertex="1" parent="1">
          <mxGeometry x="722" y="560" width="120" height="60" as="geometry" />
        </mxCell>
      </root>
    </mxGraphModel>
  </diagram>
</mxfile>
